<mxfile host="app.diagrams.net" agent="Mozilla/5.0 (Windows NT 10.0; Win64; x64) AppleWebKit/537.36 (KHTML, like Gecko) Chrome/132.0.0.0 Safari/537.36" version="26.0.8">
  <diagram id="C5RBs43oDa-KdzZeNtuy" name="Page-1">
    <mxGraphModel dx="1232" dy="535" grid="1" gridSize="10" guides="1" tooltips="1" connect="1" arrows="1" fold="1" page="1" pageScale="1" pageWidth="827" pageHeight="1169" math="0" shadow="0">
      <root>
        <mxCell id="WIyWlLk6GJQsqaUBKTNV-0" />
        <mxCell id="WIyWlLk6GJQsqaUBKTNV-1" parent="WIyWlLk6GJQsqaUBKTNV-0" />
        <mxCell id="WIyWlLk6GJQsqaUBKTNV-2" value="" style="rounded=0;html=1;jettySize=auto;orthogonalLoop=1;fontSize=11;endArrow=block;endFill=0;endSize=8;strokeWidth=1;shadow=0;labelBackgroundColor=none;edgeStyle=orthogonalEdgeStyle;" parent="WIyWlLk6GJQsqaUBKTNV-1" source="WIyWlLk6GJQsqaUBKTNV-3" edge="1">
          <mxGeometry relative="1" as="geometry">
            <mxPoint x="220" y="170" as="targetPoint" />
          </mxGeometry>
        </mxCell>
        <mxCell id="WIyWlLk6GJQsqaUBKTNV-3" value="React Native App&lt;div&gt;(Frontend)&lt;/div&gt;" style="rounded=1;whiteSpace=wrap;html=1;fontSize=12;glass=0;strokeWidth=1;shadow=0;" parent="WIyWlLk6GJQsqaUBKTNV-1" vertex="1">
          <mxGeometry x="160" y="80" width="120" height="40" as="geometry" />
        </mxCell>
        <mxCell id="WIyWlLk6GJQsqaUBKTNV-4" value="" style="rounded=0;html=1;jettySize=auto;orthogonalLoop=1;fontSize=11;endArrow=block;endFill=0;endSize=8;strokeWidth=1;shadow=0;labelBackgroundColor=none;edgeStyle=orthogonalEdgeStyle;" parent="WIyWlLk6GJQsqaUBKTNV-1" edge="1">
          <mxGeometry y="20" relative="1" as="geometry">
            <mxPoint as="offset" />
            <mxPoint x="220" y="250" as="sourcePoint" />
            <mxPoint x="220" y="280" as="targetPoint" />
            <Array as="points">
              <mxPoint x="221" y="250" />
              <mxPoint x="221" y="271" />
              <mxPoint x="220" y="271" />
            </Array>
          </mxGeometry>
        </mxCell>
        <mxCell id="WIyWlLk6GJQsqaUBKTNV-7" value="&lt;i&gt;AuthController&lt;/i&gt;&lt;div&gt;(User Login/Register)&lt;/div&gt;" style="rounded=1;whiteSpace=wrap;html=1;fontSize=12;glass=0;strokeWidth=1;shadow=0;" parent="WIyWlLk6GJQsqaUBKTNV-1" vertex="1">
          <mxGeometry x="340" y="180" width="120" height="40" as="geometry" />
        </mxCell>
        <mxCell id="WIyWlLk6GJQsqaUBKTNV-8" value="No" style="rounded=0;html=1;jettySize=auto;orthogonalLoop=1;fontSize=11;endArrow=block;endFill=0;endSize=8;strokeWidth=1;shadow=0;labelBackgroundColor=none;edgeStyle=orthogonalEdgeStyle;" parent="WIyWlLk6GJQsqaUBKTNV-1" target="WIyWlLk6GJQsqaUBKTNV-11" edge="1">
          <mxGeometry x="0.3333" y="20" relative="1" as="geometry">
            <mxPoint as="offset" />
            <mxPoint x="220" y="360" as="sourcePoint" />
            <Array as="points">
              <mxPoint x="221" y="360" />
              <mxPoint x="221" y="340" />
              <mxPoint x="220" y="340" />
            </Array>
          </mxGeometry>
        </mxCell>
        <mxCell id="WIyWlLk6GJQsqaUBKTNV-9" value="" style="edgeStyle=orthogonalEdgeStyle;rounded=0;html=1;jettySize=auto;orthogonalLoop=1;fontSize=11;endArrow=block;endFill=0;endSize=8;strokeWidth=1;shadow=0;labelBackgroundColor=none;" parent="WIyWlLk6GJQsqaUBKTNV-1" target="WIyWlLk6GJQsqaUBKTNV-12" edge="1">
          <mxGeometry y="10" relative="1" as="geometry">
            <mxPoint as="offset" />
            <mxPoint x="270" y="320" as="sourcePoint" />
          </mxGeometry>
        </mxCell>
        <mxCell id="KQbSvGA2WYFGfVNg5W2O-14" value="" style="edgeStyle=orthogonalEdgeStyle;rounded=0;orthogonalLoop=1;jettySize=auto;html=1;" edge="1" parent="WIyWlLk6GJQsqaUBKTNV-1" source="WIyWlLk6GJQsqaUBKTNV-11" target="KQbSvGA2WYFGfVNg5W2O-13">
          <mxGeometry relative="1" as="geometry" />
        </mxCell>
        <mxCell id="WIyWlLk6GJQsqaUBKTNV-11" value="BookingHistoryScreen&lt;div&gt;(View Past Booking)&lt;/div&gt;&lt;div&gt;API:&lt;/div&gt;&lt;div&gt;GET:&lt;/div&gt;&lt;div&gt;http://localhost:5000/api/bookings/history&amp;nbsp;&lt;br&gt;(Requires Authorization in Header)&amp;nbsp;&lt;/div&gt;&lt;div&gt;&lt;br&gt;&lt;/div&gt;" style="rounded=1;whiteSpace=wrap;html=1;fontSize=12;glass=0;strokeWidth=1;shadow=0;" parent="WIyWlLk6GJQsqaUBKTNV-1" vertex="1">
          <mxGeometry x="105" y="470" width="230" height="200" as="geometry" />
        </mxCell>
        <mxCell id="WIyWlLk6GJQsqaUBKTNV-12" value="HomeScreen" style="rounded=1;whiteSpace=wrap;html=1;fontSize=12;glass=0;strokeWidth=1;shadow=0;" parent="WIyWlLk6GJQsqaUBKTNV-1" vertex="1">
          <mxGeometry x="410" y="320" width="120" height="40" as="geometry" />
        </mxCell>
        <mxCell id="KQbSvGA2WYFGfVNg5W2O-0" value="(User Interaction)" style="text;html=1;align=center;verticalAlign=middle;resizable=0;points=[];autosize=1;strokeColor=none;fillColor=none;" vertex="1" parent="WIyWlLk6GJQsqaUBKTNV-1">
          <mxGeometry x="245" y="128" width="120" height="30" as="geometry" />
        </mxCell>
        <mxCell id="KQbSvGA2WYFGfVNg5W2O-5" value="" style="edgeStyle=orthogonalEdgeStyle;rounded=0;orthogonalLoop=1;jettySize=auto;html=1;" edge="1" parent="WIyWlLk6GJQsqaUBKTNV-1" source="KQbSvGA2WYFGfVNg5W2O-1">
          <mxGeometry relative="1" as="geometry">
            <mxPoint x="220" y="280" as="targetPoint" />
          </mxGeometry>
        </mxCell>
        <mxCell id="KQbSvGA2WYFGfVNg5W2O-1" value="HomeScreen&lt;div&gt;(Login/Register)&lt;/div&gt;" style="rounded=1;whiteSpace=wrap;html=1;" vertex="1" parent="WIyWlLk6GJQsqaUBKTNV-1">
          <mxGeometry x="160" y="170" width="120" height="60" as="geometry" />
        </mxCell>
        <mxCell id="KQbSvGA2WYFGfVNg5W2O-4" value="" style="endArrow=classic;startArrow=classic;html=1;rounded=0;" edge="1" parent="WIyWlLk6GJQsqaUBKTNV-1">
          <mxGeometry width="50" height="50" relative="1" as="geometry">
            <mxPoint x="280" y="199.5" as="sourcePoint" />
            <mxPoint x="340" y="199.5" as="targetPoint" />
          </mxGeometry>
        </mxCell>
        <mxCell id="KQbSvGA2WYFGfVNg5W2O-6" value="(On Successful Login)" style="text;html=1;align=center;verticalAlign=middle;resizable=0;points=[];autosize=1;strokeColor=none;fillColor=none;" vertex="1" parent="WIyWlLk6GJQsqaUBKTNV-1">
          <mxGeometry x="235" y="238" width="140" height="30" as="geometry" />
        </mxCell>
        <mxCell id="KQbSvGA2WYFGfVNg5W2O-7" value="BookingScreen&lt;div&gt;(Hotel Booking)&lt;/div&gt;&lt;div&gt;API:&lt;/div&gt;&lt;div&gt;GET:&lt;/div&gt;&lt;div&gt;&amp;nbsp;http://localhost:5000/api/hotels?date=YYYY-MM-DD&amp;nbsp;&lt;/div&gt;&lt;div&gt;&lt;br&gt;&lt;/div&gt;" style="rounded=1;whiteSpace=wrap;html=1;" vertex="1" parent="WIyWlLk6GJQsqaUBKTNV-1">
          <mxGeometry x="90" y="280" width="260" height="120" as="geometry" />
        </mxCell>
        <mxCell id="KQbSvGA2WYFGfVNg5W2O-16" value="" style="edgeStyle=orthogonalEdgeStyle;rounded=0;orthogonalLoop=1;jettySize=auto;html=1;" edge="1" parent="WIyWlLk6GJQsqaUBKTNV-1" source="KQbSvGA2WYFGfVNg5W2O-13" target="KQbSvGA2WYFGfVNg5W2O-15">
          <mxGeometry relative="1" as="geometry" />
        </mxCell>
        <mxCell id="KQbSvGA2WYFGfVNg5W2O-13" value="API Calls (Axios/Fetch)&amp;nbsp;&amp;nbsp;&lt;br&gt;(GET /hotels, POST /bookings)&amp;nbsp;&lt;br&gt;(POST /hotels)" style="whiteSpace=wrap;html=1;rounded=1;glass=0;strokeWidth=1;shadow=0;" vertex="1" parent="WIyWlLk6GJQsqaUBKTNV-1">
          <mxGeometry x="120" y="820" width="200" height="130" as="geometry" />
        </mxCell>
        <mxCell id="KQbSvGA2WYFGfVNg5W2O-18" value="" style="edgeStyle=orthogonalEdgeStyle;rounded=0;orthogonalLoop=1;jettySize=auto;html=1;" edge="1" parent="WIyWlLk6GJQsqaUBKTNV-1" source="KQbSvGA2WYFGfVNg5W2O-15" target="KQbSvGA2WYFGfVNg5W2O-17">
          <mxGeometry relative="1" as="geometry" />
        </mxCell>
        <mxCell id="KQbSvGA2WYFGfVNg5W2O-20" value="" style="edgeStyle=orthogonalEdgeStyle;rounded=0;orthogonalLoop=1;jettySize=auto;html=1;" edge="1" parent="WIyWlLk6GJQsqaUBKTNV-1" source="KQbSvGA2WYFGfVNg5W2O-15" target="KQbSvGA2WYFGfVNg5W2O-19">
          <mxGeometry relative="1" as="geometry" />
        </mxCell>
        <mxCell id="KQbSvGA2WYFGfVNg5W2O-22" value="" style="edgeStyle=orthogonalEdgeStyle;rounded=0;orthogonalLoop=1;jettySize=auto;html=1;" edge="1" parent="WIyWlLk6GJQsqaUBKTNV-1" source="KQbSvGA2WYFGfVNg5W2O-15" target="KQbSvGA2WYFGfVNg5W2O-21">
          <mxGeometry relative="1" as="geometry" />
        </mxCell>
        <mxCell id="KQbSvGA2WYFGfVNg5W2O-15" value="Database Layer&lt;div&gt;(MongoDB)&lt;/div&gt;" style="whiteSpace=wrap;html=1;rounded=1;glass=0;strokeWidth=1;shadow=0;" vertex="1" parent="WIyWlLk6GJQsqaUBKTNV-1">
          <mxGeometry x="440" y="855" width="120" height="60" as="geometry" />
        </mxCell>
        <mxCell id="KQbSvGA2WYFGfVNg5W2O-17" value="User Schema&lt;br&gt;(username&lt;br&gt;password)" style="whiteSpace=wrap;html=1;rounded=1;glass=0;strokeWidth=1;shadow=0;" vertex="1" parent="WIyWlLk6GJQsqaUBKTNV-1">
          <mxGeometry x="330" y="1020" width="120" height="60" as="geometry" />
        </mxCell>
        <mxCell id="KQbSvGA2WYFGfVNg5W2O-19" value="Hotel Schema&lt;div&gt;(name&lt;/div&gt;&lt;div&gt;location&lt;/div&gt;&lt;div&gt;pricePerNight)&lt;/div&gt;" style="whiteSpace=wrap;html=1;rounded=1;glass=0;strokeWidth=1;shadow=0;" vertex="1" parent="WIyWlLk6GJQsqaUBKTNV-1">
          <mxGeometry x="520" y="1020" width="130" height="80" as="geometry" />
        </mxCell>
        <mxCell id="KQbSvGA2WYFGfVNg5W2O-21" value="Booking Schema&lt;div&gt;(user&lt;/div&gt;&lt;div&gt;hotel&lt;/div&gt;&lt;div&gt;bookingDate)&lt;/div&gt;" style="whiteSpace=wrap;html=1;rounded=1;glass=0;strokeWidth=1;shadow=0;" vertex="1" parent="WIyWlLk6GJQsqaUBKTNV-1">
          <mxGeometry x="680" y="1020" width="150" height="90" as="geometry" />
        </mxCell>
      </root>
    </mxGraphModel>
  </diagram>
</mxfile>
